<?xml version="1.0" encoding="UTF-8" standalone="no"?>
<svg width="256px" height="200px" viewBox="0 0 256 200" version="1.1" xmlns="http://www.w3.org/2000/svg" xmlns:xlink="http://www.w3.org/1999/xlink" xmlns:sketch="http://www.bohemiancoding.com/sketch/ns">
    <!-- Generator: Sketch 3.3.2 (12043) - http://www.bohemiancoding.com/sketch -->
    <title>256</title>
    <desc>Created with Sketch.</desc>
    <defs></defs>
    <g id="Page-1" stroke="none" stroke-width="1" fill="none" fill-rule="evenodd" sketch:type="MSPage">
        <g id="256" sketch:type="MSArtboardGroup">
            <g id="Fill-137-+-account" sketch:type="MSLayerGroup" transform="translate(49.000000, 21.000000)">
                <path d="M9.35984791,85.0905095 L0.402509506,78.769308 L9.29376426,72.5322129 L9.98463878,73.5162586 L2.49315589,78.7723118 L10.0507224,84.1082662 L9.35984791,85.0905095" id="Fill-137" fill="#FFFFFF" sketch:type="MSShapeGroup"></path>
                <g id="account" transform="translate(6.007605, 0.000000)" sketch:type="MSShapeGroup">
                    <path d="M0,78.2106008 L146.020837,78.2106008 L146.020837,79.4121217 L0,79.4121217 L0,78.2106008 Z" id="Fill-125" fill="#FFFFFF"></path>
                    <path d="M72.4096578,5.80334601 L73.6111787,5.80334601 L73.6111787,151.819376 L72.4096578,151.819376 L72.4096578,5.80334601 Z" id="Fill-126" fill="#FFFFFF"></path>
                    <path d="M92.3428897,78.8113612 C92.3428897,89.488076 83.6859316,98.1432319 73.0104183,98.1432319 C62.3349049,98.1432319 53.6779468,89.488076 53.6779468,78.8113612 C53.6779468,68.1346464 62.3349049,59.4794905 73.0104183,59.4794905 C83.6859316,59.4794905 92.3428897,68.1346464 92.3428897,78.8113612" id="Fill-127" fill="#808285"></path>
                    <path d="M92.3428897,78.8113612 C92.3428897,89.488076 83.6859316,98.1432319 73.0104183,98.1432319 C62.3349049,98.1432319 53.6779468,89.488076 53.6779468,78.8113612 C53.6779468,68.1346464 62.3349049,59.4794905 73.0104183,59.4794905 C83.6859316,59.4794905 92.3428897,68.1346464 92.3428897,78.8113612 L92.3428897,78.8113612 Z" id="Stroke-128" stroke="#FFFFFF" stroke-width="1.8"></path>
                    <path d="M78.4412928,27.5965323 C78.4412928,30.5949278 76.0082129,33.0250038 73.0104183,33.0250038 C70.0126236,33.0250038 67.5795437,30.5949278 67.5795437,27.5965323 C67.5795437,24.5981369 70.0126236,22.1674601 73.0104183,22.1674601 C76.0082129,22.1674601 78.4412928,24.5981369 78.4412928,27.5965323" id="Fill-129" fill="#808285"></path>
                    <path d="M78.4412928,27.5965323 C78.4412928,30.5949278 76.0082129,33.0250038 73.0104183,33.0250038 C70.0126236,33.0250038 67.5795437,30.5949278 67.5795437,27.5965323 C67.5795437,24.5981369 70.0126236,22.1674601 73.0104183,22.1674601 C76.0082129,22.1674601 78.4412928,24.5981369 78.4412928,27.5965323 L78.4412928,27.5965323 Z" id="Stroke-130" stroke="#FFFFFF" stroke-width="2.20000005"></path>
                    <path d="M67.711711,9.84586312 L66.7324715,9.15258555 L73.0524715,0.198851711 L79.288365,9.0895057 L78.3031179,9.77977947 L73.0464639,2.2864943 L67.711711,9.84586312" id="Fill-131" fill="#FFFFFF"></path>
                    <path d="M78.4412928,130.02619 C78.4412928,127.027795 76.0082129,124.597118 73.0104183,124.597118 C70.0126236,124.597118 67.5795437,127.027795 67.5795437,130.02619 C67.5795437,133.024586 70.0126236,135.454662 73.0104183,135.454662 C76.0082129,135.454662 78.4412928,133.024586 78.4412928,130.02619" id="Fill-132" fill="#808285"></path>
                    <path d="M78.4412928,130.02619 C78.4412928,127.027795 76.0082129,124.597118 73.0104183,124.597118 C70.0126236,124.597118 67.5795437,127.027795 67.5795437,130.02619 C67.5795437,133.024586 70.0126236,135.454662 73.0104183,135.454662 C76.0082129,135.454662 78.4412928,133.024586 78.4412928,130.02619 L78.4412928,130.02619 Z" id="Stroke-133" stroke="#FFFFFF" stroke-width="2.20000005"></path>
                    <path d="M73.0524715,157.423871 L66.7324715,148.470137 L67.711711,147.776859 L73.0464639,155.336228 L78.3031179,147.842943 L79.288365,148.532616 L73.0524715,157.423871" id="Fill-134" fill="#FFFFFF"></path>
                    <path d="M21.7955894,73.382289 C24.793384,73.382289 27.2264639,75.8129658 27.2264639,78.8113612 C27.2264639,81.8097567 24.793384,84.2398327 21.7955894,84.2398327 C18.7977947,84.2398327 16.3647148,81.8097567 16.3647148,78.8113612 C16.3647148,75.8129658 18.7977947,73.382289 21.7955894,73.382289" id="Fill-135" fill="#808285"></path>
                    <path d="M21.7955894,73.382289 C24.793384,73.382289 27.2264639,75.8129658 27.2264639,78.8113612 C27.2264639,81.8097567 24.793384,84.2398327 21.7955894,84.2398327 C18.7977947,84.2398327 16.3647148,81.8097567 16.3647148,78.8113612 C16.3647148,75.8129658 18.7977947,73.382289 21.7955894,73.382289 L21.7955894,73.382289 Z" id="Stroke-136" stroke="#FFFFFF" stroke-width="2.20000005"></path>
                    <path d="M124.225247,73.382289 C121.227452,73.382289 118.794373,75.8129658 118.794373,78.8113612 C118.794373,81.8097567 121.227452,84.2398327 124.225247,84.2398327 C127.223042,84.2398327 129.656122,81.8097567 129.656122,78.8113612 C129.656122,75.8129658 127.223042,73.382289 124.225247,73.382289" id="Fill-138" fill="#808285"></path>
                    <path d="M124.225247,73.382289 C121.227452,73.382289 118.794373,75.8129658 118.794373,78.8113612 C118.794373,81.8097567 121.227452,84.2398327 124.225247,84.2398327 C127.223042,84.2398327 129.656122,81.8097567 129.656122,78.8113612 C129.656122,75.8129658 127.223042,73.382289 124.225247,73.382289 L124.225247,73.382289 Z" id="Stroke-139" stroke="#FFFFFF" stroke-width="2.20000005"></path>
                    <path d="M142.668593,85.0905095 L141.977719,84.1082662 L149.535285,78.7723118 L142.043802,73.5162586 L142.728669,72.5322129 L151.619924,78.769308 L142.668593,85.0905095" id="Fill-140" fill="#FFFFFF"></path>
                    <path d="M99.5760456,24.966403 L132.185323,24.966403 L132.185323,57.572076 L99.5760456,57.572076 L99.5760456,24.966403 Z" id="Fill-141" fill="#808285"></path>
                    <path d="M99.5760456,100.050046 L132.185323,100.050046 L132.185323,132.656319 L99.5760456,132.656319 L99.5760456,100.050046 Z" id="Fill-142" fill="#808285"></path>
                    <path d="M13.8355133,100.050046 L46.4387833,100.050046 L46.4387833,132.656319 L13.8355133,132.656319 L13.8355133,100.050046 Z" id="Fill-143" fill="#808285"></path>
                    <path d="M13.8355133,24.966403 L46.4387833,24.966403 L46.4387833,57.572076 L13.8355133,57.572076 L13.8355133,24.966403 Z" id="Fill-144" fill="#808285"></path>
                </g>
            </g>
        </g>
    </g>
</svg>