<?xml version="1.0" encoding="UTF-8" standalone="no"?>
<svg width="256px" height="200px" viewBox="0 0 256 200" version="1.1" xmlns="http://www.w3.org/2000/svg" xmlns:xlink="http://www.w3.org/1999/xlink" xmlns:sketch="http://www.bohemiancoding.com/sketch/ns">
    <!-- Generator: Sketch 3.3.2 (12043) - http://www.bohemiancoding.com/sketch -->
    <title>256</title>
    <desc>Created with Sketch.</desc>
    <defs></defs>
    <g id="Page-1" stroke="none" stroke-width="1" fill="none" fill-rule="evenodd" sketch:type="MSPage">
        <g id="256" sketch:type="MSArtboardGroup">
            <g id="asset" sketch:type="MSLayerGroup" transform="translate(46.000000, 18.000000)">
                <path d="M106,82.5002762 C106,95.4789558 95.4789558,106 82.5002762,106 C69.5210442,106 59,95.4789558 59,82.5002762 C59,69.5210442 69.5210442,59 82.5002762,59 C95.4789558,59 106,69.5210442 106,82.5002762" id="Fill-36" fill="#808285" sketch:type="MSShapeGroup"></path>
                <path d="M41,137.5 C41,144.956097 34.9555451,151 27.5,151 C20.043903,151 14,144.956097 14,137.5 C14,130.044455 20.043903,124 27.5,124 C34.9555451,124 41,130.044455 41,137.5" id="Fill-37" fill="#808285" sketch:type="MSShapeGroup"></path>
                <path d="M151,26.5 C151,33.9555451 144.955545,40 137.5,40 C130.043903,40 124,33.9555451 124,26.5 C124,19.043903 130.043903,13 137.5,13 C144.955545,13 151,19.043903 151,26.5" id="Fill-38" fill="#808285" sketch:type="MSShapeGroup"></path>
                <path d="M136,86 L135.44702,86 C134.699227,98.1014184 129.743929,109.104431 122,117.616533 L122.212472,117.825598 L122.390177,118 C130.233444,109.388782 135.250552,98.2503639 136,86" id="Fill-39" fill="#FFFFFF" sketch:type="MSShapeGroup"></path>
                <path d="M78.5893652,4.14761702 C78.5893652,2.47323747 79.9317665,1.11106805 81.5818471,1.11106805 C83.2319276,1.11106805 84.574329,2.47323747 84.574329,4.14761702 C84.574329,5.72811131 83.3775552,7.029172 81.8555831,7.1697221 L81.8555831,4.29983334 L81.3081111,4.29983334 L81.3081111,7.1697221 C79.7861389,7.029172 78.5893652,5.72811131 78.5893652,4.14761702 L78.5893652,4.14761702 Z M46,42.6066819 L46.3876102,43 C55.6820421,34.5797708 67.9136614,29.4327481 81.3081111,29.3638619 C81.3995389,29.3633063 81.4904192,29.3599731 81.5818471,29.3599731 C81.6738224,29.3599731 81.7641552,29.3633063 81.8555831,29.3638619 C95.1717443,29.4327481 107.338214,34.5192176 116.61239,42.8522279 L117,42.4589099 C107.626185,34.0259034 95.3228465,28.8772141 81.8555831,28.8083278 L81.8555831,8.28079015 C83.9814168,8.13690684 85.6692729,6.34086534 85.6692729,4.14761702 C85.6692729,1.86048344 83.8357892,0 81.5818471,0 C79.3284524,0 77.4944212,1.86048344 77.4944212,4.14761702 C77.4944212,6.34086534 79.1822773,8.13690684 81.3081111,8.28079015 L81.3081111,28.8083278 C67.7625591,28.8777696 55.3940719,34.0859011 46,42.6066819 L46,42.6066819 Z" id="Fill-40" fill="#FFFFFF" sketch:type="MSShapeGroup"></path>
                <path d="M122.214724,47.1758331 L122,47.3854176 C129.740658,55.9184968 134.689905,66.914329 135.44116,79 L136,79 C135.24763,66.7640815 130.235917,55.6326999 122.394311,47 L122.214724,47.1758331" id="Fill-41" fill="#FFFFFF" sketch:type="MSShapeGroup"></path>
                <path d="M84.5886185,159.919831 C84.5886185,161.566762 83.2399777,162.907146 81.5822275,162.907146 C79.9244773,162.907146 78.5758365,161.566762 78.5758365,159.919831 C78.5758365,158.365247 79.7781729,157.085516 81.3072192,156.946723 L81.3072192,159.919831 L81.8572358,159.919831 L81.8572358,156.946723 C83.3862821,157.085516 84.5886185,158.365247 84.5886185,159.919831 L84.5886185,159.919831 Z M117,122.53222 L116.610588,122.14535 C107.314757,130.255415 95.1566385,135.200031 81.8572358,135.267788 C81.765383,135.267788 81.6746303,135.271067 81.5822275,135.271067 C81.4903747,135.271067 81.3990719,135.267788 81.3072192,135.267788 C67.9291641,135.199485 55.7061439,130.196401 46.3894118,122 L46,122.38687 C55.4168352,130.681628 67.7773595,135.745912 81.3072192,135.814215 L81.3072192,155.85387 C79.1715045,155.995394 77.4758031,157.762539 77.4758031,159.919831 C77.4758031,162.16947 79.3183589,164 81.5822275,164 C83.8466461,164 85.6886518,162.16947 85.6886518,159.919831 C85.6886518,157.762539 83.9929505,155.995394 81.8572358,155.85387 L81.8572358,135.814215 C95.3078931,135.746458 107.603515,130.741189 117,122.53222 L117,122.53222 Z" id="Fill-42" fill="#FFFFFF" sketch:type="MSShapeGroup"></path>
                <path d="M29.5648253,79 C30.319053,66.9300309 35.2621195,55.9407178 43,47.3873946 L42.7824126,47.176188 L42.6009019,47 C34.7615558,55.6534549 29.7553551,66.7790127 29,79 L29.5648253,79" id="Fill-43" fill="#FFFFFF" sketch:type="MSShapeGroup"></path>
                <path d="M29.2788622,86 L29,86 C29.7523703,98.2355823 34.7640825,109.367698 42.6051311,118 L43,117.614576 C35.2593419,109.081896 30.3095371,98.0858766 29.5588399,86 L29.2788622,86" id="Fill-44" fill="#FFFFFF" sketch:type="MSShapeGroup"></path>
                <path d="M4.12447401,85.9249021 C2.45943722,85.9249021 1.10486847,84.575413 1.10486847,82.9166201 C1.10486847,81.2578271 2.45943722,79.908338 4.12447401,79.908338 C5.69614942,79.908338 6.9899504,81.1114307 7.13026869,82.6414388 L4.12447401,82.6414388 L4.12447401,83.1918014 L7.13026869,83.1918014 C6.9899504,84.7218095 5.69614942,85.9249021 4.12447401,85.9249021 L4.12447401,85.9249021 Z M28.7718799,83.1918014 L34.8978232,83.1918014 C34.9657726,94.9717628 39.37696,105.739607 46.6088766,114 L47,113.610343 C39.8675216,105.450117 35.5182068,94.8204131 35.4502574,83.1918014 C35.449705,83.0998908 35.4430758,83.009081 35.4430758,82.9166201 C35.4430758,82.8241591 35.449705,82.7338997 35.4502574,82.6414388 C35.5176544,71.0920792 39.8089635,60.5278688 46.8547098,52.3896567 L46.4635864,52 C39.3178495,60.238378 34.9652202,70.9401791 34.8978232,82.6414388 L8.23513717,82.6414388 C8.09150427,80.5043807 6.30548438,78.8076128 4.12447401,78.8076128 C1.85010226,78.8076128 0,80.6507772 0,82.9166201 C0,85.182463 1.85010226,87.0256274 4.12447401,87.0256274 C6.30548438,87.0256274 8.09150427,85.3294098 8.23513717,83.1918014 L28.7718799,83.1918014 L28.7718799,83.1918014 Z" id="Fill-45" fill="#FFFFFF" sketch:type="MSShapeGroup"></path>
                <path d="M82.0833799,129.452555 C81.9914694,129.452555 81.9006595,129.445985 81.8081986,129.445438 C70.1795869,129.378102 59.5498833,125.068066 51.3902071,118 L51,118.388139 C59.2603925,125.554197 70.0282372,129.925547 81.8081986,129.992883 C81.9006595,129.993431 81.9914694,130 82.0833799,130 C82.1758409,130 82.2666507,129.993431 82.3585612,129.992883 C94.0598209,129.926095 104.761622,125.612774 113,118.531569 L112.610343,118.143978 C104.472682,125.126095 93.9079208,129.37865 82.3585612,129.445438 C82.2666507,129.445985 82.1758409,129.452555 82.0833799,129.452555" id="Fill-46" fill="#FFFFFF" sketch:type="MSShapeGroup"></path>
                <path d="M82.0829338,35.5409792 C82.1749,35.5409792 82.265224,35.5469299 82.3566427,35.5474709 C93.9230348,35.6140114 104.496411,39.8736814 112.612428,46.8582635 L112.821542,46.6516094 L113,46.4747092 C104.783805,39.3932919 94.0741221,35.0730322 82.3566427,35.0064918 C82.265224,35.0059508 82.1749,35 82.0829338,35 C81.991515,35 81.9011911,35.0059508 81.8092249,35.0064918 C70.0134647,35.0735732 59.237544,39.4500947 51,46.6169867 L51.3875718,47 C59.5254858,39.9310252 70.164552,35.6145523 81.8092249,35.5474709 C81.9011911,35.5469299 81.991515,35.5409792 82.0829338,35.5409792" id="Fill-47" fill="#FFFFFF" sketch:type="MSShapeGroup"></path>
                <path d="M114.351808,48.4883556 L110.354992,52.4851711 C103.017016,45.4310023 93.0815749,41.0645265 82.1394107,40.9923443 C82.0480893,40.9917975 81.9578616,40.9852355 81.8659933,40.9852355 C81.7746719,40.9852355 81.6844442,40.9917975 81.5925759,40.9923443 C71.4378538,41.0590582 62.1509586,44.826203 55,51.005983 L56.1625708,52.1680069 C63.0127702,46.2835178 71.8900862,42.6995625 81.5925759,42.6328487 C81.6844442,42.6323019 81.7746719,42.6257398 81.8659933,42.6257398 C81.9578616,42.6257398 82.0480893,42.6323019 82.1394107,42.6328487 C103.706575,42.7804941 121.219506,60.2934251 121.367151,81.8605893 C121.367698,81.9519107 121.373713,82.0421384 121.373713,82.1340067 C121.373713,82.2258749 121.367698,82.3161027 121.367151,82.4074241 C121.300437,92.1099138 117.716482,100.98723 111.831993,107.837976 L112.994017,109 C119.173797,101.849588 122.940942,92.5621462 123.007656,82.4074241 C123.008203,82.3161027 123.014218,82.2258749 123.014218,82.1340067 C123.014218,82.0421384 123.008203,81.9519107 123.007656,81.8605893 C122.935473,70.918972 118.568998,60.9835306 111.514829,53.6450077 L113.342898,51.8174858 L115.302753,49.8570831 L115.511644,49.6487391 L115.689366,49.4704709 L119.786252,45.3735847 L119.99733,45.1630533 L120.172864,44.9869725 L134.976229,30.1841547 C135.473302,30.4799923 136.0524,30.6533389 136.673604,30.6533389 C138.510422,30.6533389 140,29.1637609 140,27.3269429 C140,25.489578 138.510422,24 136.673604,24 C134.836239,24 133.346661,25.489578 133.346661,27.3269429 C133.346661,27.9476004 133.520008,28.5266984 133.816392,29.0243181 L119.013028,43.8271359 L118.837494,44.0032167 L118.626415,44.2137481 L114.351808,48.4883556" id="Fill-48" fill="#FFFFFF" sketch:type="MSShapeGroup"></path>
                <path d="M49.7487422,116.415251 L53.7606776,112.403342 C61.1279701,119.48512 71.1023619,123.868685 82.0868742,123.94115 C82.1791026,123.941699 82.2696841,123.948287 82.3613635,123.948287 C82.4535919,123.948287 82.5441734,123.941699 82.6358528,123.94115 C92.6733771,123.875273 101.867121,120.210865 109,114.176531 L107.833421,113.009959 C101.00248,118.747846 92.2188229,122.228348 82.6358528,122.294225 C82.5441734,122.294774 82.4535919,122.301361 82.3613635,122.301361 C82.2696841,122.301361 82.1791026,122.294774 82.0868742,122.294225 C60.4351592,122.146002 42.8541202,104.564527 42.7053471,82.9129519 C42.7047981,82.8212731 42.6987593,82.7306922 42.6987593,82.6384644 C42.6987593,82.5462366 42.7047981,82.4556557 42.7053471,82.3639769 C42.7712245,72.7810688 46.2517487,63.9974683 51.9896727,57.1665719 L50.8230933,56 C44.7892697,63.1328326 41.1248377,72.3270664 41.0584113,82.3639769 C41.0578623,82.4556557 41.0518236,82.5462366 41.0518236,82.6384644 C41.0518236,82.7306922 41.0578623,82.8212731 41.0584113,82.9129519 C41.1308765,93.8973933 45.5144704,103.871721 52.5962941,111.238966 L48.5843586,115.250875 L48.4053916,115.429292 L44.0810874,119.754117 L43.9043163,119.930338 L29.0434662,134.791641 C28.5438957,134.494646 27.9625274,134.320621 27.3394367,134.320621 C25.4948687,134.320621 24,135.81548 24,137.660036 C24,139.504592 25.4948687,141 27.3394367,141 C29.1840047,141 30.6788734,139.504592 30.6788734,137.660036 C30.6788734,137.036949 30.5048472,136.455585 30.2078497,135.956017 L49.7487422,116.415251" id="Fill-49" fill="#FFFFFF" sketch:type="MSShapeGroup"></path>
                <path d="M136.909725,139.904288 C135.257946,139.904288 133.914609,138.560944 133.914609,136.909706 C133.914609,136.182701 134.175935,135.515412 134.60874,134.996044 L136.715785,137.103647 L137.103117,136.716313 L134.996072,134.60871 C135.515437,134.175904 136.182175,133.915124 136.909725,133.915124 C138.560956,133.915124 139.904293,135.258467 139.904293,136.909706 C139.904293,138.560944 138.560956,139.904288 136.909725,139.904288 L136.909725,139.904288 Z M82.2739268,115.984888 C82.1824353,115.985435 82.0920394,115.991462 82,115.991462 C81.9085084,115.991462 81.8181126,115.985435 81.7260732,115.984888 C63.2009509,115.836966 48.1634647,100.79941 48.0155442,82.274202 C48.0149963,82.18271 48.0084221,82.0923138 48.0084221,82.0002739 C48.0084221,81.9082341 48.0149963,81.8178378 48.0155442,81.7263458 C48.0889566,72.5618079 51.8050477,64.2519256 57.7870614,58.1740093 C57.9147113,58.0441674 58.0440047,57.9148734 58.1743939,57.786675 C64.2522819,51.8051814 72.5621257,48.0890731 81.7260732,48.0156603 C81.8181126,48.0151125 81.9085084,48.0090861 82,48.0090861 C82.0920394,48.0090861 82.1824353,48.0151125 82.2739268,48.0156603 C100.799049,48.1635815 115.837083,63.2011375 115.985004,81.7263458 C115.985552,81.8178378 115.991578,81.9082341 115.991578,82.0002739 C115.991578,82.0923138 115.985552,82.18271 115.985004,82.274202 C115.911591,91.4387399 112.1955,99.7480744 106.213486,105.826539 C106.085289,105.95638 105.956543,106.085674 105.826154,106.213873 C99.7482659,112.195366 91.4384222,115.911475 82.2739268,115.984888 L82.2739268,115.984888 Z M27.090823,30.0854238 C25.4395922,30.0854238 24.0957072,28.7420805 24.0957072,27.0902941 C24.0957072,25.4390556 25.4395922,24.0957123 27.090823,24.0957123 C28.7420538,24.0957123 30.0853909,25.4390556 30.0853909,27.0902941 C30.0853909,27.8178471 29.8246126,28.4851359 29.3918082,29.0045036 L27.2842153,26.8969009 L26.8968828,27.2842352 L29.0044757,29.3918379 C28.4851105,29.8240964 27.8178247,30.0854238 27.090823,30.0854238 L27.090823,30.0854238 Z M136.909725,132.819412 C135.880308,132.819412 134.941287,133.204555 134.221407,133.834041 L119.99584,119.608408 L119.819431,119.432546 L119.608508,119.221074 L111.326056,110.939132 L106.600819,106.213325 C112.681994,100.036247 116.459445,91.5894004 116.532857,82.274202 C116.533405,82.18271 116.539432,82.0923138 116.539432,82.0002739 C116.539432,81.9082341 116.533405,81.8178378 116.532857,81.7263458 C116.384937,62.8992688 101.100916,47.6157253 82.2739268,47.4678042 C82.1824353,47.4672563 82.0920394,47.4612299 82,47.4612299 C81.9085084,47.4612299 81.8181126,47.4672563 81.7260732,47.4678042 C72.4109181,47.5412169 63.9641109,51.3186851 57.7870614,57.3993407 L49.266294,48.8790816 L49.0575618,48.6698006 L30.1659254,29.7786243 C30.795957,29.0587413 31.1810981,28.1197159 31.1810981,27.0902941 C31.1810981,24.8353182 29.3457885,23 27.090823,23 C24.8353096,23 23,24.8353182 23,27.0902941 C23,29.345818 24.8353096,31.1811361 27.090823,31.1811361 C28.1196921,31.1811361 29.059261,30.7959932 29.7785929,30.1659586 L48.6702293,49.0571349 L48.8789615,49.266416 L57.3997289,57.786675 C51.3185537,63.9643011 47.541103,72.4111475 47.4676906,81.7263458 C47.4671427,81.8178378 47.4605685,81.9082341 47.4605685,82.0002739 C47.4605685,82.0923138 47.4671427,82.18271 47.4676906,82.274202 C47.615611,101.101279 62.8990835,116.384823 81.7260732,116.532744 C81.8181126,116.533292 81.9085084,116.539318 82,116.539318 C82.0920394,116.539318 82.1824353,116.533292 82.2739268,116.532744 C91.5896298,116.459331 100.035889,112.681863 106.213486,106.600659 L119.221175,119.608408 L119.432099,119.819881 L119.608508,119.995743 L133.834075,134.221376 C133.204043,134.941259 132.818902,135.880284 132.818902,136.909706 C132.818902,139.16523 134.654212,141 136.909725,141 C139.16469,141 141,139.16523 141,136.909706 C141,134.654182 139.16469,132.819412 136.909725,132.819412 L136.909725,132.819412 Z" id="Fill-50" fill="#FFFFFF" sketch:type="MSShapeGroup"></path>
                <path d="M159.888237,85.2130692 C158.228331,85.2130692 156.877937,83.8708006 156.877937,82.2208831 C156.877937,82.2104822 156.879038,82.2006286 156.879038,82.1907751 L159.888237,82.1907751 L159.888237,81.6433573 L156.935213,81.6433573 C157.206724,80.2693384 158.427145,79.2286971 159.888237,79.2286971 C161.548142,79.2286971 162.898536,80.5709657 162.898536,82.2208831 C162.898536,83.8708006 161.548142,85.2130692 159.888237,85.2130692 L159.888237,85.2130692 Z M159.888237,78.1338613 C157.818587,78.1338613 156.105811,79.6627994 155.822184,81.6433573 L129.209173,81.6433573 C129.141433,69.9264253 124.743839,59.2161947 117.534761,51 L117.144842,51.3875718 C124.25479,59.5041365 128.591252,70.0769652 128.658441,81.6433573 C128.658992,81.7353235 128.6656,81.8251 128.6656,81.9170662 C128.6656,82.0090324 128.658992,82.0993563 128.658441,82.1907751 C128.590701,93.835448 124.196412,104.474514 117,112.612428 L117.389918,113 C124.686013,104.762456 129.141433,93.9865353 129.209173,82.1907751 L155.777575,82.1907751 C155.777575,82.2006286 155.776473,82.2104822 155.776473,82.2208831 C155.776473,84.474055 157.620874,86.3079049 159.888237,86.3079049 C162.155599,86.3079049 164,84.474055 164,82.2208831 C164,79.9671638 162.155599,78.1338613 159.888237,78.1338613 L159.888237,78.1338613 Z" id="Fill-51" fill="#FFFFFF" sketch:type="MSShapeGroup"></path>
            </g>
        </g>
    </g>
</svg>