<?xml version="1.0" encoding="UTF-8" standalone="no"?>
<svg width="256px" height="200px" viewBox="0 0 256 200" version="1.1" xmlns="http://www.w3.org/2000/svg" xmlns:xlink="http://www.w3.org/1999/xlink" xmlns:sketch="http://www.bohemiancoding.com/sketch/ns">
    <!-- Generator: Sketch 3.3.2 (12043) - http://www.bohemiancoding.com/sketch -->
    <title>256</title>
    <desc>Created with Sketch.</desc>
    <defs></defs>
    <g id="Page-1" stroke="none" stroke-width="1" fill="none" fill-rule="evenodd" sketch:type="MSPage">
        <g id="256" sketch:type="MSArtboardGroup">
            <g id="blockchain" sketch:type="MSLayerGroup" transform="translate(37.000000, 17.000000)">
                <path d="M140,117.499668 L91.5,166 L43,117.499668 L91.5,69 L140,117.499668" id="Fill-103" fill="#808285" sketch:type="MSShapeGroup"></path>
                <path d="M90.6668885,46.3331115 L67.9996672,68.9996672 L45.3331115,46.3331115 L67.9996672,23.6665557 L90.6668885,46.3331115 L90.6668885,46.3331115 Z M113.333444,23.6665557 L90.6668885,46.3331115 L67.9996672,23.6665557 L90.6668885,1 L113.333444,23.6665557 L113.333444,23.6665557 Z M45.3331115,91.6662229 L22.6665557,114.333444 L0,91.6662229 L45.3331115,91.6662229 L45.3331115,91.6662229 Z M90.6668885,91.6662229 L67.9996672,114.333444 L45.3331115,91.6662229 L67.9996672,68.9996672 L90.6668885,91.6662229 L90.6668885,91.6662229 Z M113.333444,68.9996672 L90.6668885,91.6662229 L67.9996672,68.9996672 L90.6668885,46.3331115 L113.333444,68.9996672 L113.333444,68.9996672 Z M136,46.3331115 L113.333444,68.9996672 L90.6668885,46.3331115 L113.333444,23.6665557 L136,46.3331115 L136,46.3331115 Z M67.9996672,114.333444 L45.3331115,137 L22.6665557,114.333444 L45.3331115,91.6662229 L67.9996672,114.333444 L67.9996672,114.333444 Z M136,91.6662229 L113.333444,114.333444 L90.6668885,91.6662229 L113.333444,68.9996672 L136,91.6662229 L136,91.6662229 Z" id="Stroke-104" stroke="#FFFFFF" stroke-width="2" sketch:type="MSShapeGroup"></path>
                <path d="M115,91.25 L92,114 L69,91.25 L92,68.5 L115,91.25 L115,91.25 Z M115,45.75 L92,68.5 L69,45.75 L92,23 L115,45.75 L115,45.75 Z" id="Stroke-105" stroke="#FFFFFF" stroke-width="3" sketch:type="MSShapeGroup"></path>
                <path d="M158.333333,115.000338 L135.666667,138 L113,115.000338 L135.666667,92 L158.333333,115.000338 L158.333333,115.000338 Z M181,92 L158.333333,115.000338 L135.666667,92 L181,92 L181,92 Z" id="Stroke-106" stroke="#FFFFFF" stroke-width="2" sketch:type="MSShapeGroup"></path>
            </g>
        </g>
    </g>
</svg>