<?xml version="1.0" encoding="UTF-8" standalone="no"?>
<svg width="54px" height="54px" viewBox="0 0 54 54" version="1.1" xmlns="http://www.w3.org/2000/svg" xmlns:xlink="http://www.w3.org/1999/xlink" xmlns:sketch="http://www.bohemiancoding.com/sketch/ns">
    <!-- Generator: Sketch 3.3.2 (12043) - http://www.bohemiancoding.com/sketch -->
    <title>Imported Layers</title>
    <desc>Created with Sketch.</desc>
    <defs></defs>
    <g id="Page-1" stroke="none" stroke-width="1" fill="none" fill-rule="evenodd" sketch:type="MSPage">
        <path d="M27,0 C12.098,0 0,12.098 0,27 C0,41.902 12.098,54 27,54 C41.902,54 54,41.902 54,27 C54,12.098 41.902,0 27,0 L27,0 Z M27,1.688 C40.988,1.688 52.312,13.012 52.312,27 C52.312,40.988 40.988,52.312 27,52.312 C13.012,52.312 1.688,40.988 1.688,27 C1.688,13.012 13.012,1.688 27,1.688 L27,1.688 Z M13.492,12.648 L13.492,12.648 C12.734,12.648 12.363,13.566 12.902,14.098 L25.805,27 L12.902,39.906 C12.121,40.703 13.301,41.883 14.098,41.098 L27,28.195 L39.902,41.098 C40.699,41.883 41.879,40.703 41.098,39.906 L28.195,27 L41.098,14.098 C41.648,13.559 41.254,12.625 40.48,12.648 C40.262,12.656 40.055,12.746 39.902,12.902 L27,25.809 L14.098,12.906 C13.938,12.742 13.719,12.652 13.492,12.652 L13.492,12.648 Z" id="Imported-Layers" fill="#000000" sketch:type="MSShapeGroup"></path>
    </g>
</svg>