<?xml version="1.0" encoding="UTF-8" standalone="no"?>
<svg width="256px" height="200px" viewBox="0 0 256 200" version="1.1" xmlns="http://www.w3.org/2000/svg" xmlns:xlink="http://www.w3.org/1999/xlink" xmlns:sketch="http://www.bohemiancoding.com/sketch/ns">
    <!-- Generator: Sketch 3.3.2 (12043) - http://www.bohemiancoding.com/sketch -->
    <title>256</title>
    <desc>Created with Sketch.</desc>
    <defs></defs>
    <g id="Page-1" stroke="none" stroke-width="1" fill="none" fill-rule="evenodd" sketch:type="MSPage">
        <g id="256" sketch:type="MSArtboardGroup">
            <g id="delegates" sketch:type="MSLayerGroup" transform="translate(51.000000, 23.000000)">
                <path d="M60.7254408,119 L37,94.9824698 L37,61.0169722 L60.7254408,37 L94.2800716,37 L118,61.0169722 L118,94.9824698 L94.2800716,119 L60.7254408,119" id="Fill-112" fill="#808285" sketch:type="MSShapeGroup"></path>
                <path d="M136,78.5 C136,110.808805 109.809359,137 77.5,137 C45.1911946,137 19,110.808805 19,78.5 C19,46.1911946 45.1911946,20 77.5,20 C109.809359,20 136,46.1911946 136,78.5 L136,78.5 Z" id="Stroke-113" stroke="#FFFFFF" stroke-width="3" sketch:type="MSShapeGroup"></path>
                <path d="M42.2773763,42.4370134 L113.504169,42.4370134 L113.504169,113.562987 L42.2773763,113.562987 L42.2773763,42.4370134 Z M77.8910506,128.294075 L27.5252918,78 L77.8910506,27.7059251 L128.256809,78 L77.8910506,128.294075 L77.8910506,128.294075 Z M77.8910506,27.7059251 L64.0183435,13.8529625 L77.8910506,0 L91.7643135,13.8529625 L77.8910506,27.7059251 L77.8910506,27.7059251 Z M113.504169,22.8457039 L133.126181,22.8457039 L133.126181,42.4370134 L113.504169,42.4370134 L113.504169,22.8457039 Z M113.504169,113.562987 L133.126181,113.562987 L133.126181,133.154296 L113.504169,133.154296 L113.504169,113.562987 Z M22.6581434,113.562987 L42.2773763,113.562987 L42.2773763,133.154296 L22.6581434,133.154296 L22.6581434,113.562987 Z M22.6581434,22.8457039 L42.2773763,22.8457039 L42.2773763,42.4370134 L22.6581434,42.4370134 L22.6581434,22.8457039 Z M77.8910506,156 L64.0183435,142.147037 L77.8910506,128.294075 L91.7643135,142.147037 L77.8910506,156 L77.8910506,156 Z M142.131184,91.8529625 L128.256809,78 L142.131184,64.1470375 L156,78 L142.131184,91.8529625 L142.131184,91.8529625 Z M13.8727071,91.8529625 L0,78 L13.8727071,64.1470375 L27.7454141,78 L13.8727071,91.8529625 L13.8727071,91.8529625 Z" id="Stroke-114" stroke="#FFFFFF" stroke-width="2" sketch:type="MSShapeGroup"></path>
            </g>
        </g>
    </g>
</svg>