<?xml version="1.0" encoding="UTF-8" standalone="no"?>
<svg width="256px" height="200px" viewBox="0 0 256 200" version="1.1" xmlns="http://www.w3.org/2000/svg" xmlns:xlink="http://www.w3.org/1999/xlink" xmlns:sketch="http://www.bohemiancoding.com/sketch/ns">
    <!-- Generator: Sketch 3.3.2 (12043) - http://www.bohemiancoding.com/sketch -->
    <title>256</title>
    <desc>Created with Sketch.</desc>
    <defs></defs>
    <g id="Page-1" stroke="none" stroke-width="1" fill="none" fill-rule="evenodd" sketch:type="MSPage">
        <g id="256" sketch:type="MSArtboardGroup">
            <g id="proposal" sketch:type="MSLayerGroup" transform="translate(17.000000, 30.000000)">
                <path d="M149,58 L110.998806,124 L73,58 L149,58" id="Fill-64" fill="#808285" sketch:type="MSShapeGroup"></path>
                <path d="M135.198051,67 L134,64.9412274 L187.801949,33 L189,35.0587726 L135.198051,67" id="Fill-65" fill="#FFFFFF" sketch:type="MSShapeGroup"></path>
                <path d="M61,51.0001979 L111.000394,22 L161,51.0001979 L161,109.000594 L111.000394,138 L61,109.000594 L61,51.0001979 L61,51.0001979 Z M61.8768405,108.988722 L111.000394,23.5132052 L160.125523,108.988722 L61.8768405,108.988722 L61.8768405,108.988722 Z" id="Stroke-66" stroke="#FFFFFF" stroke-width="2" sketch:type="MSShapeGroup"></path>
                <path d="M135,66 L111.000792,108 L87,66 L135,66 L135,66 Z" id="Stroke-67" stroke="#FFFFFF" stroke-width="3" sketch:type="MSShapeGroup"></path>
                <path d="M25,28.75 L38,21 L51,28.75 L51,44.25 L38,52 L25,44.25 L25,28.75 L25,28.75 Z" id="Stroke-68" stroke="#FFFFFF" stroke-width="2" sketch:type="MSShapeGroup"></path>
                <path d="M37,7 L39,7 L39,20 L37,20 L37,7 Z" id="Fill-69" fill="#FFFFFF" sketch:type="MSShapeGroup"></path>
                <path d="M42,5 C42,7.20932878 40.2094985,9 38.0003792,9 C35.7912598,9 34,7.20932878 34,5 C34,2.79067122 35.7912598,1 38.0003792,1 C40.2094985,1 42,2.79067122 42,5" id="Fill-70" fill="#FFFFFF" sketch:type="MSShapeGroup"></path>
                <path d="M13.7925402,51 L13,49.6824071 L24.2074598,43 L25,44.3175929 L13.7925402,51" id="Fill-71" fill="#FFFFFF" sketch:type="MSShapeGroup"></path>
                <path d="M4.64560718,48.0674868 C8.19833332,45.9389348 12.8035688,47.092881 14.9321208,50.6456072 C17.0614843,54.1983333 15.9067266,58.8035688 12.3548119,60.9321208 C8.80208578,63.0614843 4.19685031,61.9067266 2.06748681,58.3548119 C-0.0610651971,54.8020858 1.09288103,50.1968503 4.64560718,48.0674868 L4.64560718,48.0674868 Z" id="Stroke-72" stroke="#FFFFFF" stroke-width="2" sketch:type="MSShapeGroup"></path>
                <path d="M209,33.5 C209,44.2699178 200.264255,53 189.496015,53 C178.727774,53 170,44.2699178 170,33.5 C170,22.7308793 178.727774,14 189.496015,14 C200.264255,14 209,22.7308793 209,33.5" id="Fill-73" fill="#808285" sketch:type="MSShapeGroup"></path>
                <path d="M183.345443,24.5662115 C188.55954,21.443439 195.313264,23.1361642 198.432198,28.3468692 C201.559069,33.5567806 199.860718,40.3118096 194.654557,43.4337885 C189.44046,46.556561 182.686736,44.8638358 179.567802,39.6531308 C176.440931,34.4432194 178.139282,27.6881904 183.345443,24.5662115 L183.345443,24.5662115 Z" id="Stroke-74" stroke="#FFFFFF" stroke-width="2" sketch:type="MSShapeGroup"></path>
                <path d="M85.7736237,67 L50,45.0228402 L51.2255917,43 L87,64.9779496 L85.7736237,67" id="Fill-75" fill="#FFFFFF" sketch:type="MSShapeGroup"></path>
                <path d="M110,107 L112,107 L112,138 L110,138 L110,107 Z" id="Fill-76" fill="#FFFFFF" sketch:type="MSShapeGroup"></path>
            </g>
        </g>
    </g>
</svg>