<?xml version="1.0" encoding="UTF-8" standalone="no"?>
<svg width="256px" height="200px" viewBox="0 0 256 200" version="1.1" xmlns="http://www.w3.org/2000/svg" xmlns:xlink="http://www.w3.org/1999/xlink" xmlns:sketch="http://www.bohemiancoding.com/sketch/ns">
    <!-- Generator: Sketch 3.3.2 (12043) - http://www.bohemiancoding.com/sketch -->
    <title>256</title>
    <desc>Created with Sketch.</desc>
    <defs></defs>
    <g id="Page-1" stroke="none" stroke-width="1" fill="none" fill-rule="evenodd" sketch:type="MSPage">
        <g id="256" sketch:type="MSArtboardGroup">
            <g id="witness" sketch:type="MSLayerGroup" transform="translate(20.000000, 36.000000)">
                <path d="M46,64 C46,76.7028153 35.7028153,87 23,87 C10.2979831,87 0,76.7028153 0,64 C0,51.2971847 10.2979831,41 23,41 C35.7028153,41 46,51.2971847 46,64" id="Fill-97" fill="#808285" sketch:type="MSShapeGroup"></path>
                <path d="M217,64 C217,76.7028153 206.702815,87 194,87 C181.297185,87 171,76.7028153 171,64 C171,51.2971847 181.297185,41 194,41 C206.702815,41 217,51.2971847 217,64" id="Fill-98" fill="#808285" sketch:type="MSShapeGroup"></path>
                <path d="M194,65 L90,1 L90,129 L194,65 L194,65 Z" id="Stroke-99" stroke="#FFFFFF" stroke-width="2" sketch:type="MSShapeGroup"></path>
                <path d="M73,34 L73,94 L193,64.3950695 L73,34 L73,34 Z" id="Stroke-100" stroke="#FFFFFF" stroke-width="2" stroke-linecap="round" sketch:type="MSShapeGroup"></path>
                <path d="M23,64 L127,128 L127,0 L23,64 L23,64 Z" id="Stroke-101" stroke="#FFFFFF" stroke-width="2" sketch:type="MSShapeGroup"></path>
                <path d="M143,94 L143,34 L24,63.6049305 L143,94 L143,94 Z" id="Stroke-102" stroke="#FFFFFF" stroke-width="2" stroke-linecap="round" sketch:type="MSShapeGroup"></path>
            </g>
        </g>
    </g>
</svg>