<?xml version="1.0" encoding="UTF-8" standalone="no"?>
<svg width="256px" height="200px" viewBox="0 0 256 200" version="1.1" xmlns="http://www.w3.org/2000/svg" xmlns:xlink="http://www.w3.org/1999/xlink" xmlns:sketch="http://www.bohemiancoding.com/sketch/ns">
    <!-- Generator: Sketch 3.3.2 (12043) - http://www.bohemiancoding.com/sketch -->
    <title>256</title>
    <desc>Created with Sketch.</desc>
    <defs></defs>
    <g id="Page-1" stroke="none" stroke-width="1" fill="none" fill-rule="evenodd" sketch:type="MSPage">
        <g id="256" sketch:type="MSArtboardGroup">
            <g id="worker" sketch:type="MSLayerGroup" transform="translate(41.000000, 20.000000)">
                <path d="M34,68 L87.5,160 L141,68 L34,68" id="Fill-15" fill="#808285" sketch:type="MSShapeGroup"></path>
                <path d="M10,145 L87.5,11 L165,145 L10,145 L10,145 Z" id="Stroke-16" stroke="#FFFFFF" stroke-width="3" sketch:type="MSShapeGroup"></path>
                <path d="M108.124788,37.5 L86.4997169,0 L64.8746461,37.5 L77.5674624,37.5 L34.3173208,112.5 L21.6250708,112.5 L0,150 L43.2495753,150 L43.2495753,138.502532 L129.749858,138.502532 L129.749858,150 L173,150 L151.374929,112.5 L139.286317,112.5 L96.0361755,37.5 L108.124788,37.5 L108.124788,37.5 Z" id="Stroke-17" stroke="#FFFFFF" stroke-width="2" sketch:type="MSShapeGroup"></path>
                <path d="M61.5802143,95.4301103 L56.7475475,87.2946152 L61.5802143,79.1596882 L111.78641,79.1596882 L116.619076,87.2946152 L111.78641,95.4301103 L61.5802143,95.4301103 Z M133,121.779299 C133,126.319657 129.333195,130 124.809538,130 C120.285881,130 116.619076,126.319657 116.619076,121.779299 C116.619076,117.23894 120.285881,113.558029 124.809538,113.558029 C129.333195,113.558029 133,117.23894 133,121.779299 L133,121.779299 Z M59.3814896,121.779299 C59.3814896,126.319657 55.7141186,130 51.1910278,130 C46.667371,130 43,126.319657 43,121.779299 C43,117.23894 46.667371,113.558029 51.1910278,113.558029 C55.7141186,113.558029 59.3814896,117.23894 59.3814896,121.779299 L59.3814896,121.779299 Z M94.8740567,55.2207014 C94.8740567,59.7610597 91.2066858,63.4414027 86.683029,63.4414027 C82.1593722,63.4414027 78.4925672,59.7610597 78.4925672,55.2207014 C78.4925672,50.680343 82.1593722,47 86.683029,47 C91.2066858,47 94.8740567,50.680343 94.8740567,55.2207014 L94.8740567,55.2207014 Z" id="Stroke-23" stroke="#FFFFFF" stroke-width="2" sketch:type="MSShapeGroup"></path>
                <path d="M47,121 C47,123.040504 48.3050489,124.723552 50,125 L50,117 C48.3050489,117.275882 47,118.958929 47,121" id="Fill-24" fill="#FFFFFF" sketch:type="MSShapeGroup"></path>
                <path d="M52,117 L52,125 C53.6947386,124.723552 55,123.040504 55,121 C55,118.958929 53.6947386,117.275882 52,117" id="Fill-25" fill="#FFFFFF" sketch:type="MSShapeGroup"></path>
                <path d="M129,121 C129,118.958929 127.694739,117.275882 126,117 L126,125 C127.694739,124.723552 129,123.040504 129,121" id="Fill-26" fill="#FFFFFF" sketch:type="MSShapeGroup"></path>
                <path d="M121,121 C121,123.040504 122.305261,124.723552 124,125 L124,117 C122.305261,117.275882 121,118.958929 121,121" id="Fill-27" fill="#FFFFFF" sketch:type="MSShapeGroup"></path>
                <path d="M87,51 C84.9594958,51 83.2758816,52.3052614 83,54 L91,54 C90.7241184,52.3052614 89.0410707,51 87,51" id="Fill-28" fill="#FFFFFF" sketch:type="MSShapeGroup"></path>
                <path d="M87,59 C89.0410707,59 90.7241184,57.6947386 91,56 L83,56 C83.2764481,57.6947386 84.9594958,59 87,59" id="Fill-29" fill="#FFFFFF" sketch:type="MSShapeGroup"></path>
                <path d="M77,106.500256 C77,107.328335 76.3283353,108 75.5002556,108 C74.6716647,108 74,107.328335 74,106.500256 C74,105.671665 74.6716647,105 75.5002556,105 C76.3283353,105 77,105.671665 77,106.500256" id="Fill-30" fill="#FFFFFF" sketch:type="MSShapeGroup"></path>
                <path d="M88,106.500256 C88,107.328335 87.3283353,108 86.4997444,108 C85.6711535,108 85,107.328335 85,106.500256 C85,105.671665 85.6711535,105 86.4997444,105 C87.3283353,105 88,105.671665 88,106.500256" id="Fill-31" fill="#FFFFFF" sketch:type="MSShapeGroup"></path>
                <path d="M99,106.500256 C99,107.328335 98.3288465,108 97.5002556,108 C96.6716647,108 96,107.328335 96,106.500256 C96,105.671665 96.6716647,105 97.5002556,105 C98.3288465,105 99,105.671665 99,106.500256" id="Fill-32" fill="#FFFFFF" sketch:type="MSShapeGroup"></path>
                <path d="M83,115.500256 C83,116.328335 82.3284497,117 81.5,117 C80.6715503,117 80,116.328335 80,115.500256 C80,114.671665 80.6715503,114 81.5,114 C82.3284497,114 83,114.671665 83,115.500256" id="Fill-33" fill="#FFFFFF" sketch:type="MSShapeGroup"></path>
                <path d="M94,115.500256 C94,116.328335 93.3283353,117 92.4997444,117 C91.6716647,117 91,116.328335 91,115.500256 C91,114.671665 91.6716647,114 92.4997444,114 C93.3283353,114 94,114.671665 94,115.500256" id="Fill-34" fill="#FFFFFF" sketch:type="MSShapeGroup"></path>
                <path d="M88,124.500256 C88,125.328335 87.3283353,126 86.4997444,126 C85.6711535,126 85,125.328335 85,124.500256 C85,123.671665 85.6711535,123 86.4997444,123 C87.3283353,123 88,123.671665 88,124.500256" id="Fill-35" fill="#FFFFFF" sketch:type="MSShapeGroup"></path>
            </g>
        </g>
    </g>
</svg>